<mxfile host="app.diagrams.net" modified="2023-07-29T03:44:32.294Z" agent="Mozilla/5.0 (Windows NT 10.0; Win64; x64) AppleWebKit/537.36 (KHTML, like Gecko) Chrome/115.0.0.0 Safari/537.36" version="21.6.5" etag="IIOcorKm2jrJ0LVXwqNU" type="github">
  <diagram name="第 1 页" id="_VaMaYIfiNCUwabY4m1K">
    <mxGraphModel>
      <root>
        <mxCell id="0" />
        <mxCell id="1" parent="0" />
      </root>
    </mxGraphModel>
  </diagram>
</mxfile>
